<?xml version="1.0" standalone="no"?>
<!DOCTYPE svg PUBLIC "-//W3C//DTD SVG 20010904//EN"
 "http://www.w3.org/TR/2001/REC-SVG-20010904/DTD/svg10.dtd">
<svg version="1.0" xmlns="http://www.w3.org/2000/svg"
 width="1200.000000pt" height="1499.000000pt" viewBox="0 0 1200.000000 1499.000000"
 preserveAspectRatio="xMidYMid meet">

<g transform="translate(0.000000,1499.000000) scale(0.100000,-0.100000)"
fill="#000000" stroke="none">
<path d="M5700 14980 c-182 -12 -386 -43 -555 -84 -296 -73 -457 -137 -935
-371 -557 -273 -643 -304 -880 -312 -132 -4 -154 -2 -244 21 -261 67 -562 291
-861 639 l-90 104 -60 -37 c-33 -21 -513 -321 -1067 -667 l-1006 -629 244
-588 244 -587 0 -4558 c0 -4056 2 -4568 15 -4640 93 -490 457 -882 1076 -1157
331 -147 651 -254 1394 -463 715 -201 1018 -298 1350 -428 221 -86 542 -242
700 -338 374 -228 673 -509 861 -812 21 -35 41 -63 44 -62 3 0 39 41 80 91
167 201 411 413 680 593 493 330 1056 562 2085 860 749 217 1001 296 1252 391
855 322 1272 712 1393 1302 20 100 20 105 20 4641 l0 4540 111 248 c62 136
177 388 256 558 80 171 155 333 167 360 l23 50 -1084 660 c-596 363 -1090 661
-1097 663 -7 2 -55 -46 -107 -105 -128 -146 -316 -335 -419 -420 -235 -195
-412 -275 -606 -275 -174 0 -298 50 -680 273 -507 296 -811 416 -1239 493
-254 45 -742 66 -1065 46z m774 -415 c416 -49 716 -155 1233 -438 514 -281
665 -337 916 -337 134 0 198 10 332 52 233 74 531 263 825 525 72 65 96 81
109 73 9 -5 378 -227 821 -494 461 -278 806 -491 808 -501 5 -23 -58 -125
-207 -334 -146 -204 -206 -307 -248 -426 l-28 -80 -3 -2392 -2 -2393 -2539 0
-2538 0 -7 368 c-3 202 -9 1723 -12 3380 l-7 3012 209 0 c122 0 262 -6 338
-15z m-1534 -157 c2 -16 80 -6254 80 -6395 l0 -193 -410 0 -410 0 2 3137 3
3136 80 54 c211 143 487 259 623 262 17 1 32 0 32 -1z m-3210 -3378 l0 -3210
-412 2 -413 3 -3 2962 -2 2962 407 245 c225 135 411 245 416 246 4 0 7 -1445
7 -3210z m929 2905 c92 -54 240 -113 352 -140 85 -20 275 -45 352 -45 16 0 17
-146 15 -2962 l-3 -2963 -412 -3 -413 -2 0 3091 0 3091 26 -17 c15 -9 52 -32
83 -50z m3271 -9691 l0 -3256 -60 55 c-170 158 -477 313 -894 452 -265 89
-571 173 -1216 335 -693 174 -897 228 -1170 310 -359 108 -637 214 -874 332
-238 119 -380 214 -524 352 -135 129 -222 263 -271 415 -21 64 -21 68 -21
2156 0 1150 3 2095 7 2098 3 4 1135 7 2515 7 l2508 0 0 -3256z m1810 371 l0
-2886 -74 -33 c-226 -103 -733 -299 -748 -290 -10 6 -11 6078 -1 6087 3 4 190
7 415 7 l408 0 0 -2885z m1645 285 l0 -2595 -125 -62 c-69 -34 -192 -89 -275
-122 -143 -56 -392 -141 -415 -141 -7 0 -10 852 -10 2760 l0 2760 413 -2 412
-3 0 -2595z m1645 490 l0 -2111 -31 -62 c-88 -174 -260 -353 -479 -499 -84
-56 -277 -158 -299 -158 -8 0 -11 676 -11 2470 l0 2470 410 0 410 0 0 -2110z"/>
<path d="M6910 13163 c-175 -27 -354 -107 -453 -202 -85 -81 -166 -246 -203
-417 -26 -119 -24 -338 5 -481 94 -480 401 -891 831 -1112 205 -105 355 -147
561 -158 96 -4 150 -2 228 11 86 15 106 15 116 4 37 -40 297 -361 301 -372 3
-7 -353 -383 -796 -841 -440 -456 -800 -831 -800 -834 1 -3 60 -68 133 -145
l132 -138 800 841 c440 462 803 841 806 841 5 0 1277 -1384 1517 -1650 l31
-35 145 145 146 145 -785 830 c-432 456 -785 832 -785 835 0 3 78 91 172 195
121 134 178 190 193 189 11 -1 68 -6 127 -13 239 -26 501 31 734 160 191 105
407 305 532 493 342 511 384 1075 109 1442 -131 173 -460 287 -738 254 -693
-80 -1289 -805 -1256 -1525 8 -180 41 -316 118 -482 l38 -83 -147 -154 -147
-154 -157 156 -157 155 28 56 c41 81 79 202 97 306 22 122 14 382 -15 513 -45
202 -147 443 -258 611 -71 106 -231 273 -342 357 -163 122 -377 216 -568 249
-78 14 -231 18 -293 8z m245 -131 l60 -17 3 -173 2 -172 -205 0 -205 0 0 179
0 178 53 10 c82 16 225 13 292 -5z m3123 -32 l32 -12 0 -159 0 -159 -180 0
-180 0 2 163 3 162 55 12 c63 14 219 10 268 -7z m-3608 -185 l0 -145 -94 0
-94 0 12 48 c7 26 23 67 36 91 22 45 115 151 131 151 5 0 9 -65 9 -145z m769
115 c80 -43 156 -105 230 -188 l63 -72 -181 0 -181 0 0 145 c0 80 3 145 6 145
3 0 32 -14 63 -30z m2291 -120 l0 -140 -165 0 c-91 0 -165 4 -165 8 0 19 74
101 134 150 62 51 172 122 188 122 4 0 8 -63 8 -140z m832 62 c53 -51 118
-154 118 -189 0 -10 -25 -13 -110 -13 l-110 0 0 140 0 141 23 -12 c12 -7 48
-37 79 -67z m-3892 -592 l0 -180 -125 0 -124 0 -8 38 c-10 48 -10 236 0 285
l8 37 124 0 125 0 0 -180z m545 0 l0 -175 -202 -3 -203 -2 0 180 0 180 203 -2
202 -3 0 -175z m525 0 l0 -180 -185 0 -185 0 0 180 0 180 185 0 185 0 0 -180z
m1990 0 l0 -180 -170 0 -170 0 0 180 0 180 170 0 170 0 0 -180z m580 0 l0
-180 -180 0 -180 0 0 180 0 180 180 0 180 0 0 -180z m426 113 c7 -72 0 -264
-10 -282 -5 -7 -54 -11 -137 -11 l-129 0 0 180 0 180 134 0 134 0 8 -67z
m-2748 30 c48 -68 138 -295 126 -315 -3 -4 -41 -8 -85 -8 l-79 0 0 175 c0 101
4 175 9 175 5 0 18 -12 29 -27z m1202 -148 l0 -175 -120 0 c-76 0 -120 4 -120
10 0 19 52 114 98 180 42 59 129 160 138 160 2 0 4 -79 4 -175z m-2520 -535
c0 -93 -2 -170 -5 -170 -20 0 -155 249 -171 313 l-6 27 91 0 91 0 0 -170z
m548 -2 l-3 -173 -202 -3 -203 -2 0 175 0 175 205 0 205 0 -2 -172z m522 -3
l0 -175 -185 0 -185 0 0 175 0 175 185 0 185 0 0 -175z m464 123 c18 -60 41
-260 32 -283 -4 -12 -30 -15 -146 -15 l-140 0 0 175 0 175 119 0 119 0 16 -52z
m986 -123 l0 -175 -139 0 c-163 0 -151 -11 -151 140 0 82 9 153 25 198 3 9 39
12 135 12 l130 0 0 -175z m540 0 l0 -175 -170 0 -170 0 0 175 0 175 170 0 170
0 0 -175z m580 0 l0 -175 -180 0 -180 0 0 175 0 175 180 0 180 0 0 -175z m366
148 c-21 -86 -125 -250 -187 -294 l-29 -20 0 170 0 171 111 0 111 0 -6 -27z
m-3458 -650 l3 -133 -25 0 c-53 0 -248 126 -341 220 l-50 50 205 -2 205 -3 3
-132z m522 -64 l0 -202 -122 6 c-125 5 -194 21 -230 54 -16 14 -18 35 -18 180
l0 163 185 0 185 0 0 -201z m444 174 c-15 -64 -75 -175 -120 -223 -42 -45 -90
-80 -109 -80 -3 0 -5 74 -5 165 l0 165 120 0 120 0 -6 -27z m1006 -144 c0
-133 -3 -169 -12 -163 -75 44 -162 152 -203 253 -14 33 -25 65 -25 71 0 6 45
10 120 10 l120 0 0 -171z m540 -3 l0 -174 -38 -15 c-56 -22 -146 -37 -229 -37
l-73 0 0 200 0 200 170 0 170 0 0 -174z m560 145 c-53 -76 -242 -221 -318
-245 -22 -7 -22 -7 -22 133 l0 141 181 0 180 0 -21 -29z"/>
<path d="M2700 7101 c-175 -37 -356 -136 -480 -261 -82 -82 -128 -153 -169
-258 l-26 -67 -3 -587 -3 -588 -114 0 -115 0 0 -155 0 -154 113 -3 112 -3 3
-77 3 -78 154 0 155 0 0 64 c0 35 3 71 6 80 6 14 64 16 555 16 l549 0 0 -89 0
-88 -102 -7 c-376 -26 -739 -186 -988 -436 -158 -159 -264 -337 -317 -535 -23
-89 -26 -119 -27 -265 0 -182 13 -255 74 -398 212 -499 844 -851 1525 -852
415 0 760 95 1043 289 100 68 302 246 302 265 0 7 -41 50 -90 95 l-90 83 -88
-84 c-289 -274 -697 -411 -1177 -395 -186 6 -263 20 -425 73 -444 147 -770
511 -805 895 -24 280 180 628 484 824 179 116 374 180 604 200 l77 7 0 -636 0
-636 165 0 165 0 0 636 0 636 68 -7 c165 -17 319 -67 466 -151 48 -27 170
-111 272 -187 101 -75 187 -137 190 -137 12 0 184 164 184 176 0 12 -152 155
-245 230 -126 103 -278 186 -426 234 -90 30 -293 65 -431 76 l-78 6 0 89 0 89
530 0 530 0 0 -80 0 -80 165 0 165 0 0 80 0 80 115 0 116 0 -3 153 -3 152
-112 3 -112 3 -3 552 -3 552 -29 85 c-94 279 -255 449 -509 536 -89 31 -236
54 -343 54 -248 0 -547 -165 -638 -351 l-33 -69 -12 43 c-57 194 -290 329
-629 366 -132 14 -159 13 -262 -8z m325 -286 c153 -32 299 -136 359 -253 49
-97 56 -146 56 -404 l0 -238 165 0 165 0 0 250 c0 230 2 254 21 307 72 194
270 313 518 313 220 -1 408 -90 487 -232 l29 -53 3 -582 3 -583 -1251 0 -1251
0 3 573 3 572 24 60 c31 76 131 178 214 218 132 64 303 83 452 52z"/>
</g>
</svg>
